<svg xmlns="http://www.w3.org/2000/svg" width="48" height="48" fill="none" viewBox="0 0 100 100">
  <path fillRule="evenodd" clipRule="evenodd" d="M30 80C22 80 14 79 8 77.5C7 77.2 6.5 76.5 7.5 75.5C8.5 74.5 14 74 24 72.5V23C24 17 25.5 15 30 15H52C66 15 75 22 75 33C75 40 70 46.5 61 49C71 51.5 78 58.5 78 70C78 81.5 67 87.5 49 87.5L30 80ZM38 26.5V44.5H48C55.5 44.5 60.5 41.5 60.5 35.5C60.5 29.5 55.5 26.5 48 26.5H38ZM38 53.5V74.5H49C57 74.5 62.5 71 62.5 64C62.5 57 57 53.5 49 53.5H38Z" fill="#004bbf" />
</svg>